<?xml version="1.0" encoding="UTF-8"?>
<svg height="16px" version="1.1" viewbox="0 0 16 16" width="16px" xmlns="http://www.w3.org/2000/svg" xmlns:xlink="http://www.w3.org/1999/xlink">
<title>mdpi/ic_parabar_story_download</title>
<g fill="none" fill-rule="evenodd" id="ic_parabar_story_download" stroke="none" stroke-width="1">
<path d="M8,0.5 C12.1421356,0.5 15.5,3.85786438 15.5,8 C15.5,12.1421356 12.1421356,15.5 8,15.5 C3.85786438,15.5 0.5,12.1421356 0.5,8 C0.5,3.85786438 3.85786438,0.5 8,0.5 Z M11.5,11.6987222 L4.5,11.6987222 C4.22385763,11.6987222 4,11.9225798 4,12.1987222 C4,12.4748645 4.22385763,12.6987222 4.5,12.6987222 L4.5,12.6987222 L11.5,12.6987222 C11.7761424,12.6987222 12,12.4748645 12,12.1987222 C12,11.9225798 11.7761424,11.6987222 11.5,11.6987222 L11.5,11.6987222 Z M8,3.30127784 C7.72385763,3.30127784 7.5,3.52513546 7.5,3.80127784 L7.5,3.80127784 L7.49936617,8.99327784 L5.27391956,6.76780028 C5.07865742,6.57253813 4.76207493,6.57253813 4.56681278,6.76780028 C4.37155064,6.96306242 4.37155064,7.27964491 4.56681278,7.47490706 L4.56681278,7.47490706 L7.65552897,10.5633673 L7.66499693,10.571933 C7.67374198,10.5798306 7.68276746,10.5874235 7.69173662,10.5947183 C7.70547115,10.6054992 7.71963984,10.6154599 7.73402516,10.6242152 C7.7450263,10.6311395 7.75631622,10.6376469 7.76824181,10.6441825 L7.76824181,10.6441825 L7.78867492,10.6542588 L7.80896344,10.6629575 C7.82142914,10.6681154 7.83414885,10.6727838 7.8476786,10.6773305 C7.86255364,10.6820736 7.87760679,10.6861035 7.8925326,10.6891723 L7.8925326,10.6891723 L7.942,10.6962778 L7.962,10.6982778 L7.97636617,10.6982778 L8,10.7007497 L8,10.7007497 L8.02339284,10.7002122 L8.04261211,10.6991795 L8.06636726,10.6963838 L8.10827763,10.6889942 L8.12683782,10.6847156 C8.13469954,10.6826621 8.14252101,10.6804143 8.1502186,10.6777909 C8.16489131,10.673175 8.17927226,10.6679009 8.19334249,10.6622361 C8.20599326,10.6569388 8.21847044,10.6510983 8.23087005,10.6443733 C8.2428653,10.6381179 8.25457511,10.6313904 8.26582339,10.6246002 C8.28139851,10.614807 8.29655107,10.6040721 8.31119982,10.5923955 L8.31119982,10.5923955 L8.321,10.5832778 L8.31,10.592 L8.343,10.5632778 L8.35355339,10.5545409 L11.4331872,7.47490706 L11.4910427,7.40565917 C11.6260387,7.21079103 11.6067536,6.94136663 11.4331872,6.76780028 L11.4331872,6.76780028 L11.3639393,6.70994483 C11.1690712,6.57494877 10.8996468,6.59423392 10.7260804,6.76780028 L10.7260804,6.76780028 L8.49936617,8.99327784 L8.5,3.80127784 C8.5,3.52513546 8.27614237,3.30127784 8,3.30127784 Z" fill="#000" id="形状结合"></path>
</g>
</svg>