<?xml version="1.0" encoding="UTF-8"?>
<svg width="16px" height="16px" viewBox="0 0 16 16" version="1.1" xmlns="http://www.w3.org/2000/svg" xmlns:xlink="http://www.w3.org/1999/xlink">
    <title>ic_master_ai_bycicle</title>
    <defs>
        <path d="M2.18961476,7.5 L2.18961476,8.30672269 C2.18961476,8.50840336 2.11526066,8.71008403 1.96655244,8.88655462 C1.64435131,9.26470588 1.44607369,9.76890756 1.44607369,10.2983193 C1.44607369,10.9285714 1.69392072,11.5084034 2.16483006,11.9369748 C2.63573941,12.3655462 3.23057226,12.5672269 3.85018982,12.4915966 C4.56894619,12.4159664 5.23813316,11.9369748 5.56033429,11.2310924 C5.63468839,11.0294118 5.7090425,10.8529412 5.7338272,10.6512605 C5.78339661,10.4243697 5.88253542,10.2478992 6.03124363,10.0966387 L6.03124363,10.0966387 L6.65086119,9.59243697 C6.7252153,9.84453782 6.75,10.0714286 6.75,10.3235294 C6.75,11.2310924 6.37822946,12.0882353 5.7090425,12.6932773 C5.13899435,13.2226891 4.39545327,13.5 3.6271275,13.5 L3.6271275,13.5 L3.35449578,13.5 C2.01612185,13.3739496 0.876025538,12.3655462 0.57860911,11.0294118 C0.256407979,9.56722689 0.950379645,8.15546218 2.18961476,7.5 L2.18961476,7.5 Z M12.0155245,6.25 C13.9485182,6.29929577 15.5,7.85211268 15.5,9.75 C15.5,10.7112676 15.093054,11.6232394 14.3808984,12.2887324 C13.6941769,12.9049296 12.8294166,13.25 11.8883539,13.25 L11.8883539,13.25 L11.710315,13.25 C9.82818952,13.1760563 8.30214185,11.6725352 8.2512736,9.84859155 C8.22583947,8.88732394 8.58191726,8 9.26863871,7.30985915 L9.26863871,7.30985915 L9.47211173,7.82746479 C9.57384824,8.09859155 9.57384824,8.41901408 9.4466776,8.69014085 C9.29407283,9.01056338 9.21777045,9.38028169 9.21777045,9.75 C9.21777045,10.4647887 9.49754586,11.1056338 10.0316625,11.5985915 C10.5403451,12.0915493 11.2270665,12.3380282 11.9646562,12.3133803 C13.3889674,12.2640845 14.5335031,11.056338 14.508069,9.70070423 C14.4826349,8.64084507 13.8213476,7.75352113 12.8548507,7.38380282 C12.5496412,7.26056338 12.3461682,7.03873239 12.2189975,6.76760563 L12.2189975,6.76760563 Z M9.26880479,2.5 C9.46859914,2.5 9.6434192,2.6257622 9.71834208,2.80182927 L9.71834208,2.80182927 L12.4655144,9.66844512 C12.5654116,9.91996951 12.4405401,10.1966463 12.1907972,10.2972561 C11.9660285,10.3978659 11.666337,10.2721037 11.5664398,10.0205793 L11.5664398,10.0205793 L9.81823925,5.64405488 L4.0491774,10.6242378 C3.94928022,10.6996951 3.84938305,10.75 3.72451158,10.75 C3.6495887,10.75 3.59964011,10.7248476 3.52471723,10.6996951 C3.34989717,10.5990854 3.25,10.4481707 3.25,10.2469512 L3.25,10.2469512 L3.25,6.4992378 C3.25,6.24771341 3.44979435,6.02134146 3.72451158,6.02134146 C3.97425452,6.02134146 4.19902316,6.22256098 4.19902316,6.4992378 L4.19902316,6.4992378 L4.19902316,9.19054878 L9.39367626,4.6882622 L8.89419039,3.45579268 L7.47065564,3.45579268 C7.22091271,3.45579268 7.04609265,3.22942073 7.04609265,2.97789634 C7.04609265,2.72637195 7.245887,2.5 7.52060423,2.5 L7.52060423,2.5 Z M4.50707547,4.25 C4.76650943,4.25 5,4.48684211 5,4.75 C5,5.01315789 4.79245283,5.25 4.50707547,5.25 L4.50707547,5.25 L2.74292453,5.25 C2.45754717,5.25 2.25,5.01315789 2.25,4.75 C2.25,4.48684211 2.45754717,4.25 2.74292453,4.25 L2.74292453,4.25 Z" id="path-1"></path>
    </defs>
    <g id="ic_master_ai_bycicle" stroke="none" stroke-width="1" fill="none" fill-rule="evenodd">
        <mask id="mask-2" fill="white">
            <use xlink:href="#path-1"></use>
        </mask>
        <use id="bicycle" fill="#000000" fill-rule="nonzero" xlink:href="#path-1"></use>
        <g id="编组" mask="url(#mask-2)" fill="#000000" fill-rule="nonzero">
            <g id="ic/bg/white">
                <rect id="Rectangle-13-Copy" x="0" y="0" width="16" height="16"></rect>
            </g>
        </g>
    </g>
</svg>