<svg xmlns="http://www.w3.org/2000/svg" width="40" height="40" version="1.1" viewBox="8 8 24 24">
  <g fill="none" fill-rule="evenodd" stroke="none" stroke-width="40">
    
    <g fill="#000" fill-rule="nonzero" transform="translate(7.25 9)">
      <path fill-opacity=".6" d="M15.3890234,19.6973726 C14.9660313,20.7549574 14.4856648,21.2629523 14.1982069,21.2629523 C13.9107489,21.2629523 13.4303825,20.7549574 13.0073904,19.6973726 C12.5541699,18.5642093 12.2680006,17.0385052 12.2117962,15.3777566 L16.1846176,15.3777566 C16.1284131,17.0385052 15.8422439,18.5642093 15.3890234,19.6973726 Z M12.7001037,21.2586475 C9.93614424,20.6227683 7.83031376,18.2663832 7.57000411,15.3777903 L11.2129345,15.3782183 C11.2933587,17.893804 11.8710404,20.0588639 12.7001037,21.2586475 Z M15.6969659,21.2584102 C16.5257021,20.0577189 17.1030998,17.8930388 17.1834841,15.378068 L20.8251,15.3777228 C20.5648524,18.2659975 18.4595464,20.6221936 15.6969659,21.2584102 Z M12.7019012,8.28546717 C11.8718098,9.48481627 11.2933253,11.651435 11.2129154,14.1690931 L7.56989353,14.1688328 C7.82689006,11.3110849 9.89012684,8.97402105 12.6092553,8.30810351 L12.7019012,8.28546717 Z M14.1982069,8.28376152 C14.4856648,8.28376152 14.9660313,8.79175645 15.3890234,9.84934129 C15.8421987,10.9823915 16.128356,12.5079042 16.1846008,14.1684602 L12.211813,14.1684602 C12.2680577,12.5079042 12.5542151,10.9823915 13.0073904,9.84934129 C13.4303825,8.79175645 13.9107489,8.28376152 14.1982069,8.28376152 Z M15.6949634,8.28652674 C18.4588053,8.92212913 20.5652106,11.2791737 20.8251781,14.1685415 L17.1834962,14.1690231 C17.1055789,11.7296958 16.5600973,9.61991127 15.7712246,8.40015756 L15.6949634,8.28652674 Z"/>
      <path d="M19.709716,8.99213978 C18.6507572,9.31251762 6.4863534,13.1845348 6.4863534,13.1845348 C6.4863534,13.1845348 4.46691182,13.2042995 2.26095143,10.5141039 L4.70902943,9.49672085 C5.13456946,9.64101316 5.5307619,9.628785 6.05657286,9.46003637 L8.83970248,8.77036804 L4.66500804,2.58780943 C4.66500804,2.58780943 3.81881925,1.24515726 6.75113245,1.90058674 C6.75113245,1.90058674 12.055709,5.96278209 13.0119513,6.70869996 C13.0119513,6.70869996 13.5010778,6.98750205 14.4035161,6.70869996 L18.5782105,5.33425457 C18.5782105,5.33425457 21.4053616,4.47094635 22.0558998,6.02147727 C22.7406768,7.64782279 20.7662292,8.67176194 19.709716,8.99213978 Z M2.40047598,10.6422882 C1.20894011,9.3322757 0.981853672,8.56152535 0.981853672,8.56152535 C0.981853672,8.56152535 1.22764134,6.95952207 3.26073282,8.56152535 C3.85382915,9.02976276 4.48432795,9.35068953 4.88506872,9.61374425 L2.40047598,10.6422882 Z" transform="rotate(-9 11.59 7.452)"/>
    </g>
  </g>
</svg>
