<svg height="40" version="1.1" viewbox="0 0 40 40" width="40" xmlns="http://www.w3.org/2000/svg">
<g fill="none" fill-rule="evenodd" stroke="none" stroke-width="1">
<rect fill="#000" height="40" opacity="0" width="40" x="0" y="0"></rect>
<path d="M20.2053939,9.03177275 C26.546441,9.03177275 31.6868754,14.1722071 31.6868754,20.5132542 C31.6868754,26.8543014 26.546441,31.9947357 20.2053939,31.9947357 C13.8643468,31.9947357 8.72391241,26.8543014 8.72391241,20.5132542 C8.72391241,14.1722071 13.8643468,9.03177275 20.2053939,9.03177275 Z M21.495266,20.8797062 C21.4406109,21.6257121 20.9183002,22.2418181 20.2202664,22.4360918 L20.2202664,22.4360918 L23.5461941,25.7604076 C23.9367184,26.1509319 24.5698833,26.1509319 24.9604076,25.7604076 C25.3509319,25.3698833 25.3509319,24.7367184 24.9604076,24.3461941 L24.9604076,24.3461941 Z M20,15 C19.4477153,15 19,15.4477153 19,16 L19,16 L19,20.8 C19,21.3522847 19.4477153,21.8 20,21.8 C20.5522847,21.8 21,21.3522847 21,20.8 L21,20.8 L21,16 C21,15.4477153 20.5522847,15 20,15 Z" fill="#000"></path>
<rect fill="#000" height="2.963" opacity=".6" rx="1.481" style="mix-blend-mode:multiply" transform="rotate(-45 12.87 30.513)" width="6.667" x="9.536" y="29.032"></rect>
<rect fill="#000" height="2.963" opacity=".6" rx="1.481" style="mix-blend-mode:multiply" transform="scale(-1 1) rotate(-45 0 96.454)" width="6.667" x="23.98" y="29.032"></rect>
<rect fill="#000" height="5" opacity=".6" rx="2.5" style="mix-blend-mode:multiply" transform="rotate(-45 12.628 11.813)" width="12.222" x="6.517" y="9.313"></rect>
<rect fill="#000" height="5" opacity=".6" rx="2.5" style="mix-blend-mode:multiply" transform="scale(-1 1) rotate(-45 0 78.789)" width="12.222" x="21.631" y="9.313"></rect>
</g>
</svg>
