<svg xmlns="http://www.w3.org/2000/svg" width="40" height="40" version="1.1" viewBox="8 8 24 24">
  <g fill="none" fill-rule="evenodd" stroke="none" stroke-width="1">
    <g fill="#000" transform="translate(12.5 9)">
      <rect width="8.762" height="13.143" x="0" y="8.821" fill-rule="nonzero" rx="1.643"/>
      <path fill-rule="nonzero" d="M1.64285714,8.85217825e-14 L1.64285714,8.86441012 L6.84387605,8.86441012 L6.84499141,5.079121 C6.84467261,5.05059499 6.8440322,5.02379561 6.84299015,4.99672967 C6.82799843,4.58799942 6.76398573,4.18915964 6.65003478,3.80442909 C6.20069255,2.29316054 5.2627378,1.18627707 3.86939763,0.509096978 C3.47344208,0.316389231 3.04779773,0.184755926 2.58746034,0.105690768 L2.44831333,0.0835397586 C2.4216815,0.0795152267 2.39839619,0.0765778387 2.36944182,0.0735737543 L2.246461,0.062033342 L1.64285714,8.85217825e-14 Z" opacity=".6"/>
      <rect width="7.119" height="10.405" x="9.857" y="11.559" rx="1.643"/>
    </g>
  </g>
</svg>
